<svg version="1.0" xmlns="http://www.w3.org/2000/svg"
 width="100%" height="100%" viewBox="0 0 200.000000 250.000000"
 preserveAspectRatio="xMidYMid meet">      
<g transform="translate(0.000000,250.000000) scale(0.100000,-0.100000)"
fill="#000000" stroke="none">
<style type="text/css">
.caries {
      fill: blue;
}

.amalgalma {
      fill: green;
}

.resina {
      fill: red;
}      
</style>
<path class="dentmap__top1" d="M810 2394 c-175 -22 -432 -75 -454 -95 -8 -7 51 -76 192 -226 l27
-30 125 19 c102 16 161 18 325 14 110 -2 229 -10 264 -17 59 -11 66 -10 105
12 59 33 266 179 266 188 0 29 -141 71 -395 116 -87 15 -383 28 -455 19z"/>
<path class="dentmap__top2" d="M785 1964 c-79 -15 -195 -54 -195 -65 0 -4 29 -49 65 -102 l64 -94
73 14 c77 15 314 12 373 -5 21 -6 34 -4 48 7 59 48 167 145 167 150 -1 19 -24
32 -101 55 -186 57 -346 70 -494 40z"/>
<path class="dentmap__left" d="M286 1801 c-11 -18 -45 -137 -60 -213 -23 -110 -21 -266 4 -364 26
-102 62 -204 72 -204 11 0 117 74 160 113 l36 32 -20 125 c-18 110 -19 138 -9
234 12 125 12 127 -64 197 -25 23 -45 48 -45 56 0 7 -12 18 -26 23 -32 12 -41
12 -48 1z"/>
<path class="dentmap__right" d="M1639 1801 c-8 -2 -30 -20 -49 -40 -19 -20 -50 -48 -68 -61 l-33 -25
15 -65 c18 -76 21 -232 5 -331 -13 -82 -15 -76 90 -189 77 -84 82 -84 113 -5
39 98 62 228 61 350 0 137 -12 212 -50 307 -27 69 -35 75 -84 59z"/>
<path class="dentmap__center" d="M794 1625 c-140 -30 -234 -99 -234 -170 0 -102 177 -185 395 -185
189 0 299 33 369 110 47 53 49 95 4 145 -37 43 -79 66 -174 94 -84 25 -260 28
-360 6z"/>
<path class="dentmap__bottom2" d="M725 1184 c-11 -8 -40 -26 -65 -39 -52 -26 -108 -101 -93 -124 11
-17 58 -35 178 -67 114 -31 276 -41 382 -25 96 15 223 52 223 65 0 6 -28 52
-62 104 -62 94 -62 94 -97 88 -129 -21 -322 -17 -426 9 -11 3 -29 -2 -40 -11z"/>
<path class="dentmap__bottom1" d="M585 847 c-62 -36 -253 -165 -259 -175 -12 -20 24 -44 94 -62 440
-115 721 -125 1104 -36 101 23 117 33 94 57 -7 8 -53 59 -102 114 -49 55 -96
104 -104 109 -9 5 -52 3 -106 -5 -153 -23 -444 -16 -646 16 -26 4 -45 0 -75
-18z"/>
<path class="dentmap__rectangle" d="M565 425 l-35 -36 0 -119 0 -119 35 -36 36 -35 454 0 454 0 36 35 35
36 0 119 0 119 -35 36 -36 35 -454 0 -454 0 -36 -35z"/>
</g>
</svg>